<svg xmlns="http://www.w3.org/2000/svg" viewBox="0 0 64 64">
  <rect width="64" height="64" rx="14" fill="#020617"/>
  <path fill="#ffffff" d="M17.2 42.8c-2.9 0-5.4-.8-7.2-2.5l3.6-4.8c1 .9 2.1 1.3 3.2 1.3 2 0 3.1-1.2 3.1-3.6V18.4h6.7v14.9c0 3-.8 5.3-2.5 6.9-1.6 1.7-3.9 2.6-6.9 2.6Zm26.7.1c-3.7 0-6.7-1.1-9-3.4-2.3-2.3-3.5-5.3-3.5-9.1s1.2-6.8 3.5-9.1c2.4-2.3 5.4-3.5 9.1-3.5 4.1 0 7.3 1.5 9.6 4.4l-4.4 4.1c-1.4-1.6-3-2.4-4.9-2.4-1.8 0-3.3.6-4.4 1.8-1.1 1.2-1.6 2.7-1.6 4.7 0 1.9.5 3.5 1.6 4.7 1.1 1.1 2.6 1.7 4.4 1.7 1.9 0 3.5-.8 4.9-2.4l4.4 4.1c-2.3 2.9-5.5 4.4-9.7 4.4Z"/>
  <path fill="#2563eb" d="M31.9 47.3h20.6v4.4H31.9z"/>
</svg>
